# xmcd CD database file generated by OrangeCD 4.3
#
# Track frame offsets:
#	150
#	30932
#	86345
#	127955
#	152905
#	197425
#	233925
#	272580
#
# Disc length: 4285 seconds
#
# Revision: 0
# Processed by: cddbd v1.4PL0 Copyright (c) Steve Scherf et al.
# Submitted via: OrangeCD 4.3
#
DISCID=5710bb08
DTITLE=Pat Hall And The Fat Guys Band - Heart Of The Blues
DYEAR=1999
DGENRE=Blues
TTITLE0=Chicken Shack
TTITLE1=Heart Of The Blues
TTITLE2=I Got My Mojo Workin'
TTITLE3=Mercury Blues
TTITLE4=Big Fat Waitress
TTITLE5=Has My Car Been Towed?
TTITLE6=Apolitical Blues
TTITLE7=Bad, Bad Feelin'
EXTD=
EXTT0=
EXTT1=
EXTT2=
EXTT3=
EXTT4=
EXTT5=
EXTT6=
EXTT7=
PLAYORDER=
